<?xml version="1.0" standalone="no"?>
<!DOCTYPE svg PUBLIC "-//W3C//DTD SVG 20010904//EN"
 "http://www.w3.org/TR/2001/REC-SVG-20010904/DTD/svg10.dtd">
<svg version="1.0" xmlns="http://www.w3.org/2000/svg"
 width="702.000000pt" height="702.000000pt" viewBox="0 0 702.000000 702.000000"
 preserveAspectRatio="xMidYMid meet">
<metadata>
Created by potrace 1.14, written by Peter Selinger 2001-2017
</metadata>
<g transform="translate(0.000000,702.000000) scale(0.100000,-0.100000)"
fill="#000000" stroke="none">
<path d="M3308 6938 c-68 -125 -139 -330 -156 -453 -9 -66 -9 -253 1 -287 7
-28 4 -29 -40 -14 -13 4 -23 13 -23 21 0 7 -6 15 -14 18 -21 8 -55 92 -62 153
-4 30 -10 54 -14 54 -11 0 -47 -101 -61 -169 -15 -79 -7 -242 15 -301 10 -25
18 -51 18 -57 1 -7 5 -13 10 -13 4 0 8 -5 8 -10 0 -6 9 -29 19 -53 40 -90 46
-116 45 -212 -1 -69 -6 -91 -32 -146 -31 -65 -67 -119 -80 -119 -4 0 -8 30
-10 68 -5 142 -23 220 -69 300 -23 39 -97 112 -114 112 -4 0 -5 -42 -2 -93 13
-219 -42 -394 -144 -464 -84 -57 -104 -105 -98 -232 4 -86 21 -147 89 -325 37
-95 39 -171 6 -219 -13 -20 -28 -33 -32 -31 -4 3 -14 2 -20 -2 -60 -38 -106
36 -104 169 1 37 0 67 -2 67 -2 0 -13 -24 -26 -52 -58 -132 -74 -292 -42 -418
14 -57 70 -186 86 -200 3 -3 17 -21 31 -40 28 -37 129 -142 129 -134 0 3 10
-5 23 -16 27 -26 107 -79 167 -111 57 -31 133 -81 142 -94 4 -5 8 -6 8 -1 0 5
7 2 16 -5 9 -7 23 -14 32 -15 8 -2 19 -9 23 -16 5 -7 9 -9 9 -4 0 5 7 3 15 -4
8 -7 15 -9 15 -5 0 4 7 2 15 -5 8 -7 15 -9 15 -5 0 4 6 3 13 -2 6 -6 30 -14
52 -18 22 -4 44 -10 50 -13 5 -3 21 -7 35 -9 14 -2 41 -6 60 -9 123 -18 242
-22 355 -11 76 7 165 21 173 27 1 2 11 4 22 5 11 1 22 4 25 5 3 1 8 3 13 4 41
11 99 30 121 38 14 6 28 12 31 13 27 8 90 42 90 48 0 4 5 5 10 2 6 -3 10 -3
10 2 0 4 12 14 28 20 53 24 235 197 280 266 15 23 30 44 34 47 17 13 78 162
100 241 18 67 22 111 23 214 0 72 -3 148 -7 170 -9 48 -16 78 -18 85 -1 3 -2
8 -1 12 0 4 -4 20 -10 35 -6 15 -13 37 -15 48 -2 11 -8 29 -13 40 -16 32 -69
189 -76 226 -9 44 -14 281 -7 294 4 6 8 19 9 30 3 18 1 17 -17 -5 -27 -34
-129 -238 -162 -325 -25 -66 -70 -209 -73 -230 0 -5 -5 -37 -10 -70 -5 -33 -8
-89 -7 -125 l1 -65 -24 40 c-14 22 -32 63 -41 90 -19 59 -27 194 -14 250 5 22
11 51 14 65 4 25 22 71 54 140 9 19 36 68 60 108 74 122 103 217 106 342 3 96
-30 247 -70 322 -9 18 -21 41 -26 52 -38 75 -113 188 -130 194 -4 2 -8 11 -8
20 0 28 -12 4 -17 -35 -3 -21 -9 -43 -14 -49 -5 -6 -6 -13 -4 -16 13 -12 -81
-318 -97 -318 -5 0 -8 -7 -8 -16 0 -25 -74 -131 -118 -168 l-22 -19 1 59 c1
61 -7 150 -17 194 -3 14 -8 43 -11 65 -3 22 -8 42 -12 45 -14 12 -17 240 -3
266 5 10 10 21 10 24 1 7 22 61 28 71 3 5 -2 6 -10 3 -9 -3 -16 -11 -16 -17 0
-6 -3 -8 -6 -4 -6 5 -16 -2 -79 -55 l-31 -27 -32 52 c-56 93 -73 144 -75 215
-1 86 13 141 60 232 7 13 10 26 8 29 -8 8 -117 -71 -169 -121 -27 -26 -52 -45
-56 -43 -13 8 -53 83 -78 145 -25 61 -49 177 -47 228 1 38 0 39 -17 10z m117
-1485 c24 -26 42 -50 39 -54 -2 -4 0 -10 6 -14 12 -7 40 -71 44 -100 2 -11 7
-29 12 -40 21 -49 0 -444 -23 -421 -3 2 -6 29 -8 59 -1 29 -11 80 -21 113 -9
32 -17 62 -16 67 1 4 -2 7 -8 7 -5 0 -10 6 -10 14 0 8 -17 36 -37 63 -33 42
-38 55 -39 108 -2 97 -27 237 -45 261 -5 6 -6 14 -3 17 9 9 55 -26 109 -80z
m459 -190 c23 -65 31 -101 42 -178 8 -53 8 -197 -1 -305 -9 -130 -9 -113 -1
-190 13 -123 53 -240 111 -325 31 -45 97 -115 109 -115 6 0 22 -9 35 -19 18
-14 31 -17 53 -11 15 5 28 6 28 2 0 -4 4 -1 9 7 5 7 11 9 14 5 15 -25 -89 -96
-141 -97 -120 -2 -233 116 -257 268 -9 57 -9 143 0 195 20 119 3 354 -35 467
-17 52 -18 68 -6 128 15 74 5 236 -15 263 -8 10 -4 9 9 -4 13 -11 33 -52 46
-91z m-878 -138 c9 -44 17 -87 19 -95 9 -52 61 -154 98 -193 l36 -38 42 43
c23 24 55 67 71 96 17 28 34 52 38 52 8 0 1 -120 -9 -157 -1 -2 -1 -5 -1 -8
-3 -29 -60 -158 -72 -163 -5 -2 -8 -8 -8 -14 0 -10 -54 -81 -86 -115 -12 -13
-34 1 -34 23 0 10 -59 93 -87 122 -7 7 -17 30 -22 50 -26 101 -31 121 -37 167
-4 28 -7 60 -8 73 0 30 -4 28 -22 -10 -14 -32 -14 -32 -10 32 3 36 7 74 9 85
12 51 30 113 46 150 l16 40 3 -30 c1 -16 10 -66 18 -110z m798 -257 c-22 -157
-62 -284 -135 -429 -22 -43 -39 -83 -39 -91 0 -10 -2 -10 -9 1 -6 9 -6 22 0
33 6 10 8 22 5 26 -3 5 -1 26 4 48 5 21 12 54 15 73 3 18 12 49 20 68 8 19 12
39 9 44 -3 5 -1 9 4 9 4 0 14 16 22 35 8 19 18 35 24 35 5 0 7 3 3 6 -3 4 7
30 22 59 16 29 31 64 35 79 8 32 24 35 20 4z m-369 -516 c-6 -31 25 -171 52
-241 33 -81 72 -142 135 -203 53 -53 60 -65 26 -47 -13 7 -24 11 -26 10 -1 -1
-22 7 -46 18 -113 55 -167 177 -161 365 3 85 8 116 20 116 2 0 2 -8 0 -18z"/>
<path d="M1315 6679 c-4 -5 -13 -8 -21 -5 -7 3 -26 -1 -41 -9 -15 -8 -33 -15
-39 -15 -6 0 -23 -11 -38 -25 -14 -13 -26 -22 -26 -19 0 7 -76 -72 -185 -191
-44 -49 -95 -103 -112 -122 -18 -18 -33 -35 -33 -38 0 -3 -15 -20 -32 -38 -18
-19 -58 -62 -88 -97 -30 -34 -68 -77 -85 -95 -54 -59 -71 -81 -96 -126 -13
-24 -26 -46 -29 -49 -3 -3 -6 -11 -8 -18 -25 -122 -7 -169 106 -277 46 -44
113 -108 149 -142 36 -35 67 -63 69 -63 2 0 19 -15 38 -33 19 -19 53 -49 76
-68 23 -19 58 -49 78 -67 20 -19 54 -45 75 -59 20 -14 37 -30 37 -35 0 -5 4
-7 9 -4 5 4 11 3 13 -1 5 -13 86 -73 97 -73 6 0 11 -4 11 -10 0 -5 7 -10 15
-10 8 0 15 -4 15 -9 0 -5 8 -11 18 -14 9 -3 44 -21 78 -40 33 -19 87 -44 119
-56 32 -12 63 -25 69 -29 6 -3 17 -7 26 -8 20 -3 55 -12 55 -14 0 -12 186 -17
235 -6 19 4 43 8 53 9 9 1 17 4 17 7 0 3 8 6 18 7 22 2 45 7 57 14 6 3 51 4
100 2 107 -3 115 -4 115 -13 0 -4 6 -7 13 -7 6 0 31 -9 54 -20 l42 -21 16 24
c11 17 22 23 40 20 21 -4 23 -1 19 22 -3 15 -9 41 -14 57 -9 31 -19 87 -26
140 -2 17 -6 44 -8 60 -7 41 -8 125 -3 150 26 115 28 171 14 260 -20 121 -138
344 -256 485 -74 87 -290 298 -425 413 -12 10 -34 30 -51 45 -16 15 -57 50
-90 77 -33 28 -67 57 -75 66 -24 24 -83 57 -110 61 -14 2 -30 7 -37 11 -6 4
-15 2 -18 -4z m189 -224 c33 -44 63 -81 68 -83 4 -2 8 -8 8 -14 0 -5 16 -29
35 -52 19 -24 35 -46 35 -50 0 -3 8 -15 18 -25 19 -22 20 -23 81 -106 25 -33
48 -61 53 -63 4 -2 8 -9 8 -15 0 -7 9 -23 20 -37 121 -152 160 -213 149 -233
-16 -28 -35 -20 -80 36 -24 28 -52 60 -63 70 -10 9 -16 17 -13 17 3 0 -4 10
-16 23 -12 13 -29 32 -37 43 -54 69 -205 250 -212 252 -4 2 -8 8 -8 14 0 5
-12 22 -27 38 -16 16 -38 41 -50 57 -12 15 -33 42 -47 58 -14 17 -30 35 -34
41 -28 32 -34 57 -22 80 13 23 32 33 60 30 8 0 42 -37 74 -81z m-214 -126 c18
-22 47 -55 64 -73 17 -18 58 -63 91 -101 33 -37 67 -76 75 -85 8 -9 44 -50 80
-90 36 -40 73 -82 83 -94 10 -12 37 -42 60 -67 23 -25 72 -79 108 -120 37 -41
83 -92 103 -114 43 -48 51 -68 36 -95 -9 -16 -15 -18 -30 -10 -11 6 -20 8 -20
5 0 -6 -189 184 -311 313 -28 28 -54 52 -60 52 -5 0 -9 3 -9 8 0 4 -90 99
-200 211 -210 214 -220 229 -185 275 8 11 15 16 15 11 0 -5 4 -5 10 1 23 23
56 13 90 -27z m-129 -272 c53 -50 141 -134 195 -185 211 -199 359 -340 421
-399 35 -35 66 -63 68 -63 10 0 103 -102 107 -118 7 -26 -5 -45 -32 -49 -18
-3 -91 46 -130 87 -6 6 -122 104 -159 135 -13 11 -31 28 -40 38 -8 9 -19 17
-22 17 -4 0 -20 12 -36 28 -15 15 -46 42 -68 60 -116 97 -141 119 -160 137
-12 11 -44 38 -71 59 -27 22 -54 44 -59 50 -6 6 -39 35 -75 65 -36 30 -75 64
-87 77 -12 12 -27 24 -33 26 -15 5 -31 78 -17 78 6 0 7 3 4 7 -11 10 45 43 73
43 18 0 52 -26 121 -93z m-260 -140 c17 -15 33 -27 35 -27 3 0 33 -24 68 -52
105 -88 148 -123 165 -132 9 -5 24 -18 34 -29 9 -11 17 -18 17 -14 0 5 46 -32
87 -70 13 -13 27 -23 31 -23 4 0 14 -9 22 -20 8 -11 19 -20 25 -20 6 0 24 -13
40 -30 16 -16 33 -30 37 -30 5 0 20 -10 33 -22 13 -13 30 -27 37 -33 29 -22
114 -90 124 -100 6 -5 28 -23 48 -39 34 -27 50 -74 26 -77 -5 -1 -16 -2 -22
-3 -18 -3 -58 18 -85 43 -12 12 -25 21 -28 21 -6 0 -82 54 -112 80 -7 5 -17
10 -23 10 -5 0 -10 3 -10 8 0 4 -25 23 -55 42 -30 19 -55 38 -55 43 0 4 -7 7
-15 7 -8 0 -15 3 -15 8 0 4 -18 18 -40 32 -22 14 -40 28 -40 32 0 5 -6 8 -14
8 -8 0 -16 3 -18 8 -5 11 -66 52 -78 52 -6 0 -8 5 -5 10 3 6 0 10 -8 10 -7 0
-22 8 -33 18 -10 9 -48 37 -84 62 -36 24 -66 48 -68 52 -2 4 -8 8 -13 8 -10 0
-68 42 -115 83 -19 16 -20 23 -12 58 9 35 18 44 41 40 4 0 7 3 7 9 0 17 40 4
71 -23z m-177 -209 c11 -10 26 -18 33 -18 7 0 13 -4 13 -10 0 -5 5 -10 10 -10
10 0 67 -36 80 -50 3 -3 30 -21 60 -40 30 -19 61 -40 68 -47 7 -7 20 -13 28
-13 8 0 14 -4 14 -8 0 -4 23 -21 50 -37 28 -16 50 -33 50 -37 0 -4 6 -8 13 -8
7 0 23 -9 35 -20 12 -11 23 -20 26 -20 15 0 245 -162 250 -177 5 -11 1 -22 -9
-30 -18 -13 -31 -7 -185 85 -41 25 -100 58 -130 75 -30 17 -57 33 -60 36 -8
11 -221 131 -231 131 -5 0 -9 4 -9 8 0 5 -15 16 -32 25 -28 14 -102 57 -146
85 -22 14 -23 55 -2 77 25 27 48 27 74 3z"/>
<path d="M6345 6542 c-38 -20 -72 -39 -75 -42 -3 -3 -27 -17 -55 -31 -27 -14
-94 -51 -147 -82 -54 -32 -102 -57 -107 -57 -6 0 -14 -6 -18 -14 -4 -8 -12
-15 -16 -15 -11 0 -251 -143 -258 -153 -3 -6 -9 -9 -13 -9 -11 1 -259 -159
-264 -172 -2 -4 -8 -5 -13 -1 -5 3 -9 1 -9 -4 0 -6 -20 -22 -44 -36 -25 -14
-51 -32 -58 -39 -7 -6 -31 -25 -53 -42 -106 -78 -169 -145 -208 -220 -17 -33
-32 -62 -32 -65 -1 -3 -9 -23 -19 -45 -47 -108 -133 -359 -128 -377 3 -12
-141 -145 -169 -156 -15 -6 -10 -33 24 -135 l33 -98 27 25 c16 14 30 26 33 26
2 0 12 8 22 18 10 9 34 30 53 47 19 16 49 43 67 59 19 16 46 30 61 31 15 1 32
4 38 8 7 4 24 7 40 7 27 -1 47 2 108 14 17 4 44 9 60 11 17 3 45 9 64 15 19 5
37 7 42 5 4 -3 10 -1 14 5 3 5 16 10 29 10 12 0 26 3 30 7 3 4 13 8 21 10 107
22 174 62 292 174 101 96 304 322 423 473 8 10 27 33 41 50 14 17 66 83 115
146 48 63 92 120 97 125 25 30 208 277 223 301 l19 29 -40 -30 c-91 -67 -210
-177 -515 -475 -282 -274 -337 -317 -410 -315 -44 1 -137 37 -153 59 -15 23
-30 93 -29 135 2 52 19 81 77 136 68 64 93 86 276 232 96 76 183 146 194 155
11 9 69 56 129 105 60 48 135 113 167 144 33 31 60 54 62 53 1 -2 8 6 15 16 7
11 11 20 10 20 -2 -1 -34 -17 -73 -38z"/>
<path d="M5450 4462 c-7 -26 -18 -58 -23 -72 -5 -14 -11 -34 -12 -44 -2 -23
-48 -63 -53 -47 -3 8 -9 8 -23 1 -13 -8 -19 -7 -19 0 0 8 -6 8 -20 0 -11 -6
-26 -8 -32 -3 -12 6 -33 8 -75 3 -14 -1 -15 -3 -3 -7 8 -3 26 -17 40 -30 14
-13 37 -31 53 -39 15 -8 27 -19 27 -24 0 -6 7 -10 15 -10 26 0 28 -26 7 -92
-12 -35 -25 -79 -30 -99 l-10 -37 42 29 c22 16 61 44 86 62 l45 34 30 -20 c17
-12 33 -26 37 -32 4 -5 8 -6 8 -2 0 4 12 -4 27 -18 15 -14 33 -25 40 -25 7 0
13 -4 13 -10 0 -5 5 -10 10 -10 13 0 8 24 -24 120 l-24 75 28 25 c15 14 53 43
83 65 31 21 53 43 51 47 -3 4 -14 3 -25 -2 -12 -7 -19 -7 -19 -1 0 7 -9 7 -26
1 -14 -6 -23 -6 -20 -2 2 4 -24 6 -58 5 l-62 -2 -24 80 c-14 44 -28 83 -32 85
-4 3 -5 11 -2 18 3 8 1 16 -3 19 -5 3 -15 -15 -23 -41z"/>
<path d="M1557 4490 c-7 -18 -51 -152 -53 -162 -1 -5 -2 -13 -3 -19 0 -5 -5
-7 -11 -4 -5 3 -10 1 -10 -5 0 -7 -6 -8 -17 -2 -10 5 -27 6 -38 2 -11 -4 -30
-4 -42 1 -15 6 -23 5 -23 -2 0 -8 -4 -8 -14 0 -10 9 -16 9 -21 1 -5 -8 -11 -8
-21 1 -11 9 -14 8 -14 -3 0 -8 8 -19 18 -24 36 -18 131 -89 136 -102 4 -8 -7
-55 -24 -105 -16 -50 -28 -93 -26 -95 3 -2 28 14 58 35 29 21 67 49 84 61 l32
22 26 -25 c15 -14 29 -25 31 -25 12 0 95 -65 95 -74 0 -6 4 -5 9 2 5 8 -1 41
-15 82 -40 123 -40 123 3 153 124 85 123 84 109 96 -10 8 -16 9 -21 1 -3 -6
-11 -7 -18 -3 -16 10 -57 10 -57 0 0 -4 -9 -3 -19 3 -14 7 -22 7 -26 0 -4 -6
-12 -7 -18 -3 -7 4 -16 8 -22 8 -5 0 -24 41 -42 90 -40 114 -40 113 -46 95z"/>
<path d="M2813 3531 c-17 -14 -45 -37 -63 -51 -18 -14 -42 -33 -54 -43 -11
-10 -36 -31 -55 -45 -19 -15 -39 -32 -45 -37 -6 -6 -36 -30 -66 -55 -30 -25
-60 -49 -66 -55 -7 -5 -31 -26 -54 -44 -23 -19 -48 -41 -56 -48 -7 -7 -15 -13
-18 -13 -3 0 -14 -8 -24 -17 -22 -21 -31 -29 -182 -153 -63 -52 -117 -97 -120
-100 -3 -3 -30 -25 -60 -50 -82 -67 -112 -93 -129 -112 -8 -10 -19 -18 -23
-18 -4 0 -20 -12 -36 -27 -15 -16 -47 -44 -71 -63 -104 -84 -170 -153 -182
-187 -27 -84 17 -237 78 -270 18 -10 33 -20 33 -24 0 -3 6 -6 13 -7 6 0 32 -7
57 -15 66 -21 131 -12 174 25 26 21 66 56 104 91 23 21 42 35 42 31 0 -3 8 3
18 14 14 17 103 96 231 208 19 16 52 46 73 67 22 20 41 37 44 37 2 0 17 14 32
30 16 17 34 30 41 30 6 0 11 7 11 15 0 8 3 15 8 15 4 0 23 14 42 31 19 18 55
50 80 73 25 22 86 77 134 121 49 44 101 91 116 105 15 14 60 54 99 90 40 36
93 84 118 108 25 23 49 42 54 42 5 0 9 7 9 16 0 8 4 13 9 10 10 -7 90 154 84
170 -2 6 -9 11 -16 12 -7 0 -23 3 -37 7 -14 4 -32 8 -40 9 -9 1 -20 4 -25 7
-6 3 -45 17 -87 30 -43 13 -78 27 -78 32 0 4 -9 7 -19 7 -11 0 -22 4 -25 9
-13 20 -44 17 -73 -8z m-983 -1101 c69 -49 27 -152 -60 -145 -81 7 -98 119
-23 152 39 17 51 16 83 -7z"/>
<path d="M4085 3509 c-33 -14 -80 -31 -81 -27 0 2 -8 -3 -17 -11 -10 -7 -17
-11 -17 -8 0 4 -18 0 -40 -8 -22 -8 -40 -12 -40 -10 0 2 -18 -2 -39 -10 -22
-7 -42 -11 -44 -8 -3 3 -10 2 -16 -2 -16 -9 13 -60 57 -100 35 -31 176 -164
197 -185 31 -31 134 -129 305 -290 67 -63 156 -148 197 -187 41 -40 76 -73 78
-73 2 0 35 -30 73 -67 38 -38 113 -108 166 -158 54 -49 117 -108 141 -130 168
-157 195 -174 258 -168 43 5 117 40 117 55 0 5 11 20 25 34 61 61 80 150 44
201 -24 33 -67 83 -73 83 -3 0 -21 15 -40 34 -19 19 -37 32 -40 29 -3 -4 -6 2
-6 12 0 10 -3 16 -6 12 -3 -3 -21 10 -40 29 -19 19 -37 34 -39 34 -2 0 -15 10
-27 23 -21 19 -103 92 -164 144 -60 50 -129 110 -148 128 -12 11 -46 40 -76
65 -96 81 -111 95 -151 132 -21 21 -39 34 -39 31 0 -3 -14 8 -30 26 -17 17
-33 31 -36 31 -4 0 -16 10 -28 23 -12 12 -41 38 -65 57 -43 35 -102 85 -148
127 -13 11 -42 36 -65 55 -23 18 -55 45 -72 60 -33 30 -40 32 -71 17z m1177
-1158 c18 -2 48 -48 48 -74 0 -39 -14 -62 -47 -75 -37 -15 -61 -10 -89 17 -24
23 -29 47 -18 87 7 25 53 54 79 49 11 -2 23 -4 27 -4z"/>
<path d="M3462 2932 l-32 -98 -105 0 c-58 1 -105 -2 -105 -5 0 -10 36 -39 47
-39 6 0 13 -4 15 -8 2 -4 24 -23 51 -42 26 -18 47 -41 47 -51 0 -10 -12 -50
-26 -89 -33 -92 -30 -112 11 -78 17 13 53 41 82 61 46 33 53 36 66 22 9 -8 20
-15 26 -15 6 0 11 -5 11 -11 0 -5 4 -8 9 -5 5 4 11 3 13 -2 4 -11 69 -58 90
-65 15 -5 16 -3 2 36 -8 23 -17 49 -21 57 -3 8 -12 34 -18 57 -11 39 -10 44
12 63 13 11 25 20 28 20 10 0 114 85 110 89 -3 2 -51 5 -107 5 l-101 1 -31 92
c-17 50 -34 94 -37 97 -3 3 -20 -38 -37 -92z"/>
<path d="M10 1277 c0 -11 18 -28 52 -50 l27 -17 0 -336 c0 -185 2 -339 6 -342
11 -11 216 -8 225 3 5 6 9 56 8 110 0 165 -5 151 48 151 43 1 49 5 120 75 41
40 74 77 74 81 0 4 -54 6 -120 5 l-121 -2 3 75 3 75 175 0 175 0 3 90 3 91
-341 0 c-187 0 -340 -4 -340 -9z"/>
<path d="M955 1281 c-7 -6 26 -41 37 -41 12 0 38 -26 38 -38 0 -15 -122 -376
-129 -382 -3 -3 -7 -14 -8 -25 -1 -18 -22 -81 -40 -125 -3 -8 -7 -22 -9 -31
-2 -9 -9 -29 -15 -45 -30 -71 -31 -70 88 -68 60 1 113 2 119 3 7 1 14 11 17
23 9 42 66 230 71 235 4 4 17 -6 71 -52 12 -11 37 -31 55 -45 17 -14 44 -35
58 -48 15 -13 52 -42 82 -65 30 -23 57 -44 60 -47 3 -3 40 -5 83 -5 63 -1 77
2 77 15 0 16 -62 202 -70 210 -3 3 -5 10 -5 15 0 22 -30 105 -38 105 -4 0 -6
4 -3 8 3 5 -25 98 -62 208 l-67 199 -203 0 c-112 1 -205 -1 -207 -4z m276
-283 c35 -118 50 -181 44 -186 -7 -8 -124 -9 -136 -1 -8 5 -8 17 1 43 6 21 13
43 14 49 2 7 11 38 20 71 10 32 20 66 21 75 5 21 4 21 10 21 2 0 14 -33 26
-72z"/>
<path d="M1859 1277 c-78 -18 -119 -106 -114 -243 5 -152 57 -203 213 -207 17
-1 32 -4 32 -7 0 -3 17 -6 38 -6 37 -1 122 -10 132 -14 3 -1 8 -2 13 -1 14 2
11 -78 -4 -93 -4 -5 -50 -10 -100 -10 -85 -1 -93 0 -107 22 -8 12 -12 25 -9
29 4 3 2 13 -3 22 -7 14 -24 16 -102 15 -51 -1 -98 -2 -105 -3 -12 -1 -10 -84
3 -146 6 -28 54 -109 54 -91 0 5 7 2 16 -5 22 -18 435 -21 482 -3 17 7 32 11
32 8 0 -12 38 37 55 71 15 31 19 62 19 140 0 131 -11 165 -63 201 -29 21 -49
25 -181 39 -144 14 -165 18 -182 33 -16 13 -13 68 4 78 6 4 46 7 91 7 86 0
107 -11 107 -57 0 -20 6 -21 108 -21 l107 0 0 45 c1 105 -38 181 -102 196 -44
10 -394 11 -434 1z"/>
<path d="M2525 1280 c-1 -3 -2 -27 -1 -53 1 -27 -2 -50 -6 -53 -5 -3 -5 -11
-1 -17 4 -7 7 -21 8 -31 0 -18 8 -20 100 -21 55 -1 105 -3 110 -3 7 -1 10
-101 10 -287 0 -157 2 -285 5 -286 24 -5 214 -3 223 3 13 8 17 138 4 138 -6 0
-6 5 0 13 5 6 8 103 7 215 -1 141 2 202 10 204 6 0 49 2 96 3 47 2 93 3 103 4
15 1 17 12 17 89 l0 88 -341 0 c-187 0 -342 -3 -344 -6z"/>
<path d="M3740 1273 c0 -7 5 -13 10 -13 6 0 23 -12 40 -26 l29 -27 1 -271 c1
-149 1 -280 1 -291 -2 -88 -1 -107 3 -113 4 -6 168 -8 223 -3 9 1 13 38 15
134 l3 132 110 1 c61 1 117 2 125 3 14 1 17 52 11 148 -1 9 -34 12 -122 11
-119 -1 -150 7 -134 33 5 6 8 35 9 63 l1 51 178 0 c150 0 177 2 178 15 1 8 1
49 2 90 l0 75 -342 0 c-267 0 -341 -3 -341 -12z"/>
<path d="M4717 1279 c-14 -4 -28 -4 -31 -1 -3 3 -6 0 -6 -7 0 -7 -4 -10 -9 -6
-19 11 -80 -56 -100 -110 -32 -86 -44 -242 -28 -380 16 -141 66 -221 150 -242
31 -7 356 -8 391 0 27 6 52 20 86 49 59 50 91 282 66 468 -9 63 -43 160 -57
160 -5 0 -9 6 -9 13 0 15 -74 60 -83 51 -3 -3 -12 -2 -19 2 -16 10 -314 13
-351 3z m259 -181 c22 -22 31 -287 12 -355 -10 -35 -10 -35 -98 -35 -89 0 -88
0 -99 38 -13 49 -9 313 6 340 11 19 20 21 92 19 44 0 83 -4 87 -7z"/>
<path d="M5545 1282 c-2 -2 -11 -5 -22 -7 -10 -2 -18 -4 -18 -5 0 -1 -7 -3
-16 -5 -27 -5 -59 -38 -79 -80 -35 -75 -37 -82 -44 -175 -20 -238 17 -403 102
-453 20 -12 43 -23 52 -25 37 -9 358 -7 390 2 113 32 157 136 158 371 0 229
-51 349 -157 371 -36 7 -359 13 -366 6z m256 -189 c16 -16 22 -69 22 -188 0
-115 -5 -164 -19 -187 -7 -9 -33 -13 -92 -13 l-82 0 -11 34 c-12 36 -16 265
-6 316 4 16 13 35 22 41 18 14 152 11 166 -3z"/>
<path d="M6146 1281 c-2 -3 5 -14 16 -23 10 -10 18 -16 18 -13 0 3 10 -4 23
-15 l24 -21 -1 -339 c-1 -218 3 -341 9 -343 6 -2 116 -2 245 -1 241 2 265 4
332 32 41 17 91 89 105 153 8 40 9 345 0 374 -3 11 -6 27 -6 36 -1 8 -15 37
-33 64 -33 50 -94 86 -153 91 -16 1 -30 3 -30 4 0 5 -547 6 -549 1z m517 -190
c17 -21 21 -55 20 -181 -2 -183 -3 -188 -34 -199 -15 -5 -30 -7 -33 -4 -3 4
-6 2 -6 -3 0 -10 -94 -11 -125 -1 -20 7 -20 14 -19 204 1 109 2 199 3 199 0 1
41 2 91 2 70 -1 92 -4 103 -17z"/>
</g>
</svg>
